<svg width="35" height="36" viewBox="0 0 35 36" fill="none" xmlns="http://www.w3.org/2000/svg">
<path fill-rule="evenodd" clip-rule="evenodd" d="M10.2362 0.687752C12.0935 0.602252 12.6857 0.583252 17.4167 0.583252C22.1477 0.583252 22.7398 0.603835 24.5955 0.687752C26.4512 0.771669 27.7178 1.06775 28.8262 1.49684C29.9867 1.93542 31.0397 2.621 31.9105 3.50767C32.7972 4.37692 33.4812 5.42825 33.9182 6.59042C34.3488 7.69875 34.6433 8.96542 34.7288 10.8179C34.8143 12.6783 34.8333 13.2705 34.8333 17.9999C34.8333 22.7309 34.8127 23.3231 34.7288 25.1803C34.6449 27.0328 34.3488 28.2995 33.9182 29.4078C33.4812 30.5701 32.796 31.6232 31.9105 32.4937C31.0397 33.3804 29.9867 34.0644 28.8262 34.5014C27.7178 34.9321 26.4512 35.2266 24.5987 35.3121C22.7398 35.3976 22.1477 35.4166 17.4167 35.4166C12.6857 35.4166 12.0935 35.396 10.2362 35.3121C8.38375 35.2282 7.11708 34.9321 6.00875 34.5014C4.84646 34.0644 3.79338 33.3792 2.92283 32.4937C2.03677 31.624 1.35108 30.5714 0.913583 29.4094C0.4845 28.3011 0.19 27.0344 0.1045 25.1819C0.019 23.3215 0 22.7293 0 17.9999C0 13.2689 0.0205833 12.6768 0.1045 10.8211C0.188417 8.96542 0.4845 7.69875 0.913583 6.59042C1.35173 5.42838 2.03794 4.37583 2.92442 3.50609C3.79373 2.62021 4.84575 1.93454 6.00717 1.49684C7.1155 1.06775 8.38217 0.773252 10.2347 0.687752H10.2362ZM24.4546 3.82275C22.6179 3.73884 22.0669 3.72142 17.4167 3.72142C12.7664 3.72142 12.2154 3.73884 10.3787 3.82275C8.67983 3.90034 7.75833 4.18375 7.144 4.42284C6.33175 4.7395 5.75067 5.11475 5.14108 5.72434C4.56324 6.2865 4.11854 6.97087 3.83958 7.72725C3.6005 8.34159 3.31708 9.26308 3.2395 10.962C3.15558 12.7987 3.13817 13.3497 3.13817 17.9999C3.13817 22.6502 3.15558 23.2012 3.2395 25.0378C3.31708 26.7367 3.6005 27.6583 3.83958 28.2726C4.11825 29.0278 4.56317 29.7134 5.14108 30.2755C5.70317 30.8534 6.38875 31.2983 7.144 31.577C7.75833 31.8161 8.67983 32.0995 10.3787 32.1771C12.2154 32.261 12.7648 32.2784 17.4167 32.2784C22.0685 32.2784 22.6179 32.261 24.4546 32.1771C26.1535 32.0995 27.075 31.8161 27.6893 31.577C28.5016 31.2603 29.0827 30.8851 29.6922 30.2755C30.2702 29.7134 30.7151 29.0278 30.9937 28.2726C31.2328 27.6583 31.5162 26.7367 31.5938 25.0378C31.6777 23.2012 31.6952 22.6502 31.6952 17.9999C31.6952 13.3497 31.6777 12.7987 31.5938 10.962C31.5162 9.26308 31.2328 8.34159 30.9937 7.72725C30.6771 6.915 30.3018 6.33392 29.6922 5.72434C29.1301 5.14653 28.4457 4.70184 27.6893 4.42284C27.075 4.18375 26.1535 3.90034 24.4546 3.82275ZM15.1921 23.369C16.4345 23.8862 17.8178 23.956 19.106 23.5665C20.3941 23.177 21.507 22.3524 22.2547 21.2335C23.0024 20.1146 23.3384 18.7708 23.2054 17.4317C23.0724 16.0925 22.4786 14.8411 21.5254 13.8912C20.9178 13.2839 20.1831 12.819 19.3742 12.5297C18.5653 12.2405 17.7023 12.1342 16.8475 12.2186C15.9926 12.3029 15.167 12.5757 14.4302 13.0174C13.6934 13.4591 13.0637 14.0586 12.5864 14.7728C12.1091 15.4871 11.7961 16.2983 11.67 17.148C11.5438 17.9978 11.6077 18.8649 11.8569 19.687C12.1061 20.5091 12.5344 21.2657 13.1111 21.9024C13.6879 22.5391 14.3986 23.04 15.1921 23.369ZM11.0865 11.6698C11.9178 10.8385 12.9047 10.179 13.9908 9.72916C15.0769 9.27927 16.241 9.04771 17.4167 9.04771C18.5923 9.04771 19.7564 9.27927 20.8425 9.72916C21.9287 10.179 22.9155 10.8385 23.7468 11.6698C24.5781 12.501 25.2375 13.4879 25.6874 14.5741C26.1373 15.6602 26.3689 16.8243 26.3689 17.9999C26.3689 19.1755 26.1373 20.3396 25.6874 21.4258C25.2375 22.5119 24.5781 23.4988 23.7468 24.3301C22.068 26.0089 19.7909 26.9521 17.4167 26.9521C15.0424 26.9521 12.7654 26.0089 11.0865 24.3301C9.40763 22.6512 8.46446 20.3742 8.46446 17.9999C8.46446 15.6256 9.40763 13.3486 11.0865 11.6698ZM28.3543 10.3809C28.5603 10.1866 28.7252 9.95291 28.8393 9.69371C28.9534 9.43451 29.0143 9.15505 29.0184 8.87189C29.0225 8.58873 28.9698 8.30762 28.8633 8.0452C28.7569 7.78278 28.5989 7.54439 28.3986 7.34415C28.1984 7.1439 27.96 6.98587 27.6975 6.8794C27.4351 6.77294 27.154 6.72021 26.8709 6.72434C26.5877 6.72847 26.3082 6.78937 26.049 6.90344C25.7898 7.0175 25.5562 7.18242 25.3618 7.38842C24.9839 7.78905 24.777 8.32119 24.785 8.87189C24.7931 9.42259 25.0154 9.94848 25.4048 10.3379C25.7943 10.7274 26.3202 10.9497 26.8709 10.9577C27.4216 10.9658 27.9537 10.7588 28.3543 10.3809Z" fill="white"/>
</svg>
