<svg width="13" height="9" viewBox="0 0 13 9" fill="none" xmlns="http://www.w3.org/2000/svg">
<path d="M11.375 0.4375H1.625C1.40951 0.4375 1.20285 0.523102 1.05048 0.675476C0.898102 0.827849 0.8125 1.03451 0.8125 1.25V7.75C0.8125 7.96549 0.898102 8.17215 1.05048 8.32452C1.20285 8.4769 1.40951 8.5625 1.625 8.5625H11.375C11.5905 8.5625 11.7972 8.4769 11.9495 8.32452C12.1019 8.17215 12.1875 7.96549 12.1875 7.75V1.25C12.1875 1.03451 12.1019 0.827849 11.9495 0.675476C11.7972 0.523102 11.5905 0.4375 11.375 0.4375ZM10.4812 1.25L6.5 4.00437L2.51875 1.25H10.4812ZM1.625 7.75V1.61969L6.26844 4.83313C6.33644 4.8803 6.41723 4.90558 6.5 4.90558C6.58277 4.90558 6.66356 4.8803 6.73156 4.83313L11.375 1.61969V7.75H1.625Z" fill="white"/>
</svg>
