<svg width="11" height="15" viewBox="0 0 11 15" fill="none" xmlns="http://www.w3.org/2000/svg">
<path d="M2.91896 0.0768105L2.27389 0.271412C1.69855 0.444722 1.1847 0.778813 0.792853 1.23435C0.401005 1.68988 0.14747 2.24789 0.0621016 2.84267C-0.205475 4.7058 0.392744 6.88426 1.83514 9.38254C3.27393 11.8745 4.85777 13.48 6.60107 14.1827C7.1612 14.4085 7.77438 14.4686 8.36771 14.356C8.96103 14.2434 9.50955 13.9628 9.94803 13.5476L10.4372 13.0845C10.7542 12.7843 10.9514 12.3792 10.9921 11.9445C11.0329 11.5099 10.9145 11.0752 10.6589 10.7213L9.43721 9.02758C9.27204 8.79891 9.03946 8.62767 8.77207 8.53784C8.50468 8.44801 8.21589 8.4441 7.94616 8.52666L6.09835 9.09154L6.0506 9.10055C5.84699 9.13028 5.3776 8.68973 4.792 7.67528C4.17936 6.61398 4.05143 5.99323 4.22081 5.83287L5.16138 4.95626C5.50486 4.63584 5.73942 4.21594 5.83216 3.75545C5.9249 3.29497 5.87117 2.81701 5.67851 2.3886L5.0839 1.06333C4.90452 0.664133 4.58598 0.343865 4.18776 0.162328C3.78953 -0.0192101 3.33885 -0.0496076 2.91986 0.0768105H2.91896ZM4.26135 1.43271L4.85686 2.75799C4.97267 3.01496 5.00505 3.30176 4.94946 3.57808C4.89387 3.85441 4.75311 4.10638 4.54694 4.29858L3.60457 5.17609C3.00094 5.74638 3.20095 6.72209 4.01089 8.12574C4.77398 9.44651 5.4695 10.0988 6.21637 9.98527L6.32809 9.96184L8.20924 9.38795C8.29915 9.36033 8.39546 9.36155 8.48465 9.39144C8.57384 9.42133 8.65144 9.47839 8.70655 9.55462L9.92821 11.2484C10.0561 11.4254 10.1154 11.6428 10.095 11.8602C10.0747 12.0776 9.97599 12.2803 9.8174 12.4304L9.32819 12.8935C9.01498 13.1899 8.62325 13.3902 8.19955 13.4705C7.77585 13.5508 7.338 13.5079 6.93802 13.3466C5.40824 12.7304 3.96224 11.2646 2.61534 8.93208C1.26575 6.59416 0.719783 4.6058 0.954025 2.97061C1.01496 2.54564 1.19609 2.14695 1.47606 1.82149C1.75602 1.49603 2.12318 1.25736 2.53426 1.1336L3.18023 0.939003C3.38966 0.876072 3.61483 0.891461 3.81375 0.982301C4.01267 1.07314 4.17176 1.23323 4.26135 1.43271Z" fill="white"/>
</svg>
