<svg width="34" height="38" viewBox="0 0 34 38" fill="none" xmlns="http://www.w3.org/2000/svg">
<path d="M3.77778 38H30.2222C32.3057 38 34 36.2957 34 34.2V13.3C34 12.7961 33.801 12.3128 33.4468 11.9565C33.0925 11.6002 32.6121 11.4 32.1111 11.4H26.4444V9.5C26.4444 4.2617 22.2077 0 17 0C11.7923 0 7.55556 4.2617 7.55556 9.5V11.4H1.88889C1.38792 11.4 0.907478 11.6002 0.553243 11.9565C0.199007 12.3128 0 12.7961 0 13.3V34.2C0 36.2957 1.69433 38 3.77778 38ZM11.3333 9.5C11.3333 6.3574 13.8758 3.8 17 3.8C20.1242 3.8 22.6667 6.3574 22.6667 9.5V11.4H11.3333V9.5ZM3.77778 15.2H7.55556V19H11.3333V15.2H22.6667V19H26.4444V15.2H30.2222L30.226 34.2H3.77778V15.2Z" fill="white"/>
</svg>
