<svg width="33" height="37" viewBox="0 0 33 37" fill="none" xmlns="http://www.w3.org/2000/svg">
<path d="M18.4881 0H22.9607C23.286 1.61513 24.1806 3.65269 25.7505 5.67443C27.2866 7.65551 29.3241 9.03571 32.0416 9.03571V13.5536C28.0817 13.5536 25.1067 11.7148 23.0059 9.42199V24.8482C23.0059 27.0821 22.3435 29.2658 21.1024 31.1232C19.8614 32.9806 18.0974 34.4282 16.0335 35.2831C13.9697 36.138 11.6987 36.3616 9.5078 35.9258C7.31685 35.49 5.30434 34.4143 3.72476 32.8347C2.14517 31.2551 1.06946 29.2426 0.633654 27.0517C0.197848 24.8607 0.42152 22.5898 1.27638 20.5259C2.13125 18.4621 3.57891 16.6981 5.43631 15.4571C7.2937 14.216 9.4774 13.5536 11.7113 13.5536V18.0714C10.371 18.0714 9.06073 18.4689 7.94629 19.2135C6.83186 19.9582 5.96326 21.0166 5.45034 22.2548C4.93742 23.4931 4.80322 24.8557 5.0647 26.1703C5.32619 27.4849 5.97161 28.6924 6.91936 29.6401C7.86711 30.5879 9.07462 31.2333 10.3892 31.4948C11.7038 31.7563 13.0663 31.6221 14.3046 31.1091C15.5429 30.5962 16.6013 29.7276 17.346 28.6132C18.0906 27.4988 18.4881 26.1885 18.4881 24.8482V0Z" fill="white"/>
</svg>
