<svg width="43" height="34" viewBox="0 0 43 34" fill="none" xmlns="http://www.w3.org/2000/svg">
<path d="M42.0031 4.01014C40.4738 4.6878 38.8309 5.14568 37.1038 5.35265C38.8858 4.28632 40.2191 2.60805 40.8547 0.630992C39.1804 1.62549 37.348 2.3255 35.4371 2.70061C34.1521 1.32855 32.45 0.419133 30.5951 0.11354C28.7403 -0.192053 26.8365 0.123279 25.1792 1.01058C23.5219 1.89788 22.204 3.3075 21.4299 5.0206C20.6559 6.73369 20.4691 8.65442 20.8985 10.4846C17.5059 10.3142 14.1871 9.43244 11.1574 7.89645C8.12772 6.36046 5.45484 4.20458 3.31226 1.56873C2.57965 2.83248 2.1584 4.29769 2.1584 5.85815C2.15758 7.26291 2.50352 8.64616 3.16551 9.88516C3.82751 11.1242 4.78509 12.1806 5.95331 12.9608C4.59849 12.9177 3.27356 12.5516 2.0888 11.893V12.0029C2.08867 13.9731 2.77019 15.8827 4.01773 17.4077C5.26526 18.9326 7.00198 19.979 8.93319 20.3693C7.67637 20.7094 6.35869 20.7595 5.07967 20.5158C5.62454 22.2111 6.6859 23.6935 8.11517 24.7556C9.54444 25.8177 11.2701 26.4063 13.0504 26.4389C10.0281 28.8115 6.29559 30.0985 2.45327 30.0928C1.77265 30.093 1.0926 30.0532 0.416626 29.9737C4.3168 32.4814 8.85689 33.8123 13.4937 33.8071C29.1898 33.8071 37.7704 20.807 37.7704 9.53217C37.7704 9.16587 37.7613 8.7959 37.7448 8.4296C39.4138 7.22258 40.8546 5.72792 41.9994 4.01564L42.0031 4.01014Z" fill="white"/>
</svg>
